solid Body. STL generated by ONSHAPE BY PTC INC, 1.213. Units = meters
   facet normal 0.906308 -0.422618 0
      outer loop
         vertex 0.00113369 -0.009355 0.008455
         vertex 0.00113369 -0.009355 0.008155
         vertex 0.0016 -0.008355 0.008155
      endloop
   endfacet
   facet normal 0.906308 -0.422618 0
      outer loop
         vertex 0.0016 -0.008355 0.008155
         vertex 0.0016 -0.008355 0.008455
         vertex 0.00113369 -0.009355 0.008455
      endloop
   endfacet
   facet normal 0 -1 0
      outer loop
         vertex 0.00113369 -0.009355 0.008155
         vertex 0.00113369 -0.009355 0.008455
         vertex -0.00113369 -0.009355 0.008455
      endloop
   endfacet
   facet normal 0 -1 0
      outer loop
         vertex -0.00113369 -0.009355 0.008455
         vertex -0.00113369 -0.009355 0.008155
         vertex 0.00113369 -0.009355 0.008155
      endloop
   endfacet
   facet normal -0.906308 -0.422618 0
      outer loop
         vertex -0.00113369 -0.009355 0.008155
         vertex -0.00113369 -0.009355 0.008455
         vertex -0.0016 -0.008355 0.008455
      endloop
   endfacet
   facet normal -0.906308 -0.422618 0
      outer loop
         vertex -0.0016 -0.008355 0.008455
         vertex -0.0016 -0.008355 0.008155
         vertex -0.00113369 -0.009355 0.008155
      endloop
   endfacet
   facet normal 0 0 1
      outer loop
         vertex -0.0016 -0.008355 0.008455
         vertex -0.00113369 -0.009355 0.008455
         vertex 0.00113369 -0.009355 0.008455
      endloop
   endfacet
   facet normal 0 0 1
      outer loop
         vertex -0.0016 -0.004855 0.008455
         vertex -0.0016 -0.008355 0.008455
         vertex 0.0016 -0.008355 0.008455
      endloop
   endfacet
   facet normal 0 0 1
      outer loop
         vertex 0.0016 -0.008355 0.008455
         vertex 0.0016 -0.004855 0.008455
         vertex -0.0016 -0.004855 0.008455
      endloop
   endfacet
   facet normal 0 0 1
      outer loop
         vertex 0.00113369 -0.009355 0.008455
         vertex 0.0016 -0.008355 0.008455
         vertex -0.0016 -0.008355 0.008455
      endloop
   endfacet
   facet normal 0 0 -1
      outer loop
         vertex 0.0016 -0.004855 0.008155
         vertex 0.0016 -0.008355 0.008155
         vertex -0.0016 -0.008355 0.008155
      endloop
   endfacet
   facet normal 0 0 -1
      outer loop
         vertex -0.0016 -0.008355 0.008155
         vertex 0.0016 -0.008355 0.008155
         vertex 0.00113369 -0.009355 0.008155
      endloop
   endfacet
   facet normal 0 0 -1
      outer loop
         vertex 0.00113369 -0.009355 0.008155
         vertex -0.00113369 -0.009355 0.008155
         vertex -0.0016 -0.008355 0.008155
      endloop
   endfacet
   facet normal 0 0 -1
      outer loop
         vertex -0.0016 -0.008355 0.008155
         vertex -0.0016 -0.004855 0.008155
         vertex 0.0016 -0.004855 0.008155
      endloop
   endfacet
   facet normal 0 1 0
      outer loop
         vertex 0.0016 -0.004855 0.008155
         vertex -0.0016 -0.004855 0.008155
         vertex -0.0016 -0.004855 0.008455
      endloop
   endfacet
   facet normal 0 1 0
      outer loop
         vertex -0.0016 -0.004855 0.008455
         vertex 0.0016 -0.004855 0.008455
         vertex 0.0016 -0.004855 0.008155
      endloop
   endfacet
   facet normal 1 0 0
      outer loop
         vertex 0.0016 -0.004855 0.008155
         vertex 0.0016 -0.004855 0.008455
         vertex 0.0016 -0.008355 0.008455
      endloop
   endfacet
   facet normal 1 0 0
      outer loop
         vertex 0.0016 -0.008355 0.008455
         vertex 0.0016 -0.008355 0.008155
         vertex 0.0016 -0.004855 0.008155
      endloop
   endfacet
   facet normal -1 0 0
      outer loop
         vertex -0.0016 -0.004855 0.008455
         vertex -0.0016 -0.004855 0.008155
         vertex -0.0016 -0.008355 0.008155
      endloop
   endfacet
   facet normal -1 0 0
      outer loop
         vertex -0.0016 -0.008355 0.008155
         vertex -0.0016 -0.008355 0.008455
         vertex -0.0016 -0.004855 0.008455
      endloop
   endfacet
endsolid Body. Units = meters