solid FP-PCM12SMTR-MFG_CMPL-001-0011-2. STL generated by ONSHAPE BY PTC INC, 1.213. Units = meters
   facet normal 1.60075e-45 6.53554e-30 -1
      outer loop
         vertex 6.6683e-15 -0.000703552 0.00085
         vertex 6.66811e-15 -9.4565e-05 0.00085
         vertex 0.0013 -9.4565e-05 0.00085
      endloop
   endfacet
   facet normal 1.60075e-45 6.53554e-30 -1
      outer loop
         vertex 0.0013 -9.4565e-05 0.00085
         vertex 0.0013 -0.000703552 0.00085
         vertex 6.6683e-15 -0.000703552 0.00085
      endloop
   endfacet
   facet normal 0 1 0
      outer loop
         vertex 6.6683e-15 -0.000703552 0.0004
         vertex 6.6683e-15 -0.000703552 0.00085
         vertex 0.0013 -0.000703552 0.00085
      endloop
   endfacet
   facet normal 0 1 0
      outer loop
         vertex 0.0013 -0.000703552 0.00085
         vertex 0.0013 -0.000703552 0.0004
         vertex 6.6683e-15 -0.000703552 0.0004
      endloop
   endfacet
   facet normal 0 1 0
      outer loop
         vertex 0.0013 -9.4565e-05 0.0012
         vertex 0.0013 -9.4565e-05 0.00085
         vertex 6.66811e-15 -9.4565e-05 0.00085
      endloop
   endfacet
   facet normal 0 1 0
      outer loop
         vertex 6.66811e-15 -9.4565e-05 0.00085
         vertex 6.66778e-15 -9.4565e-05 0.0012
         vertex 0.0013 -9.4565e-05 0.0012
      endloop
   endfacet
   facet normal 1 0 0
      outer loop
         vertex 0.0013 -9.4565e-05 0.0012
         vertex 0.0013 -0.00134457 0.0012
         vertex 0.0013 -0.000703552 0.00085
      endloop
   endfacet
   facet normal 1 0 0
      outer loop
         vertex 0.0013 -0.00134457 0.0004
         vertex 0.0013 -0.000703552 0.0004
         vertex 0.0013 -0.000703552 0.00085
      endloop
   endfacet
   facet normal 1 0 0
      outer loop
         vertex 0.0013 -0.000703552 0.00085
         vertex 0.0013 -0.00134457 0.0012
         vertex 0.0013 -0.00134457 0.0004
      endloop
   endfacet
   facet normal 1 0 0
      outer loop
         vertex 0.0013 -0.000703552 0.00085
         vertex 0.0013 -9.4565e-05 0.00085
         vertex 0.0013 -9.4565e-05 0.0012
      endloop
   endfacet
   facet normal -1 0 0
      outer loop
         vertex 6.66782e-15 -0.00134457 0.0004
         vertex 6.66763e-15 -0.00134457 0.0012
         vertex 6.6683e-15 -0.000703552 0.00085
      endloop
   endfacet
   facet normal -1 0 0
      outer loop
         vertex 6.66778e-15 -9.4565e-05 0.0012
         vertex 6.66811e-15 -9.4565e-05 0.00085
         vertex 6.6683e-15 -0.000703552 0.00085
      endloop
   endfacet
   facet normal -1 0 0
      outer loop
         vertex 6.6683e-15 -0.000703552 0.00085
         vertex 6.66763e-15 -0.00134457 0.0012
         vertex 6.66778e-15 -9.4565e-05 0.0012
      endloop
   endfacet
   facet normal -1 0 0
      outer loop
         vertex 6.6683e-15 -0.000703552 0.00085
         vertex 6.6683e-15 -0.000703552 0.0004
         vertex 6.66782e-15 -0.00134457 0.0004
      endloop
   endfacet
   facet normal 0 0 -1
      outer loop
         vertex 0.0013 -0.000703552 0.0004
         vertex 0.00105 -0.00159457 0.0004
         vertex 0.00025 -0.00159457 0.0004
      endloop
   endfacet
   facet normal 0 0 -1
      outer loop
         vertex 0.0013 -0.000703552 0.0004
         vertex 0.0013 -0.00134457 0.0004
         vertex 0.00105 -0.00159457 0.0004
      endloop
   endfacet
   facet normal 0 0 -1
      outer loop
         vertex 0.00025 -0.00159457 0.0004
         vertex 6.66782e-15 -0.00134457 0.0004
         vertex 0.0013 -0.000703552 0.0004
      endloop
   endfacet
   facet normal 0 0 -1
      outer loop
         vertex 6.66782e-15 -0.00134457 0.0004
         vertex 6.6683e-15 -0.000703552 0.0004
         vertex 0.0013 -0.000703552 0.0004
      endloop
   endfacet
   facet normal 0 0 1
      outer loop
         vertex 6.66763e-15 -0.00134457 0.0012
         vertex 0.00025 -0.00159457 0.0012
         vertex 0.00105 -0.00159457 0.0012
      endloop
   endfacet
   facet normal 0 0 1
      outer loop
         vertex 0.00105 -0.00159457 0.0012
         vertex 0.0013 -0.00134457 0.0012
         vertex 6.66763e-15 -0.00134457 0.0012
      endloop
   endfacet
   facet normal 0 0 1
      outer loop
         vertex 0.0013 -9.4565e-05 0.0012
         vertex 6.66778e-15 -9.4565e-05 0.0012
         vertex 6.66763e-15 -0.00134457 0.0012
      endloop
   endfacet
   facet normal 0 0 1
      outer loop
         vertex 0.0013 -0.00134457 0.0012
         vertex 0.0013 -9.4565e-05 0.0012
         vertex 6.66763e-15 -0.00134457 0.0012
      endloop
   endfacet
   facet normal -0.707107 -0.707107 0
      outer loop
         vertex 6.66763e-15 -0.00134457 0.0012
         vertex 6.66782e-15 -0.00134457 0.0004
         vertex 0.00025 -0.00159457 0.0004
      endloop
   endfacet
   facet normal -0.707107 -0.707107 0
      outer loop
         vertex 0.00025 -0.00159457 0.0004
         vertex 0.00025 -0.00159457 0.0012
         vertex 6.66763e-15 -0.00134457 0.0012
      endloop
   endfacet
   facet normal 0 -1 0
      outer loop
         vertex 0.00105 -0.00159457 0.0004
         vertex 0.00105 -0.00159457 0.0012
         vertex 0.00025 -0.00159457 0.0012
      endloop
   endfacet
   facet normal 0 -1 0
      outer loop
         vertex 0.00025 -0.00159457 0.0012
         vertex 0.00025 -0.00159457 0.0004
         vertex 0.00105 -0.00159457 0.0004
      endloop
   endfacet
   facet normal 0.707107 -0.707107 0
      outer loop
         vertex 0.0013 -0.00134457 0.0004
         vertex 0.0013 -0.00134457 0.0012
         vertex 0.00105 -0.00159457 0.0012
      endloop
   endfacet
   facet normal 0.707107 -0.707107 0
      outer loop
         vertex 0.00105 -0.00159457 0.0012
         vertex 0.00105 -0.00159457 0.0004
         vertex 0.0013 -0.00134457 0.0004
      endloop
   endfacet
endsolid FP-PCM12SMTR-MFG_CMPL-001-0011-2. Units = meters