solid FP-PCM12SMTR-MFG_CMPL-001-0011-2. STL generated by ONSHAPE BY PTC INC, 1.213. Units = meters
   facet normal 6.34824e-48 1.69271e-32 1
      outer loop
         vertex -0.00245 0.0029796 0.00015
         vertex -0.00245 0.0010796 0.00015
         vertex -0.00205 0.0010796 0.00015
      endloop
   endfacet
   facet normal 6.34824e-48 1.69271e-32 1
      outer loop
         vertex -0.00205 0.0010796 0.00015
         vertex -0.00205 0.0029796 0.00015
         vertex -0.00245 0.0029796 0.00015
      endloop
   endfacet
   facet normal 0 1 0
      outer loop
         vertex -0.00245 0.0029796 0
         vertex -0.00245 0.0029796 0.00015
         vertex -0.00205 0.0029796 0.00015
      endloop
   endfacet
   facet normal 0 1 0
      outer loop
         vertex -0.00205 0.0029796 0.00015
         vertex -0.00205 0.0029796 0
         vertex -0.00245 0.0029796 0
      endloop
   endfacet
   facet normal 0 0 -1
      outer loop
         vertex -0.00205 0.0029796 0
         vertex -0.00205 0.0010796 0
         vertex -0.00245 0.0010796 0
      endloop
   endfacet
   facet normal 0 0 -1
      outer loop
         vertex -0.00245 0.0010796 0
         vertex -0.00245 0.0029796 0
         vertex -0.00205 0.0029796 0
      endloop
   endfacet
   facet normal -1 0 0
      outer loop
         vertex -0.00245 0.0029796 0
         vertex -0.00245 0.0010796 0
         vertex -0.00245 0.0010796 0.00015
      endloop
   endfacet
   facet normal -1 0 0
      outer loop
         vertex -0.00245 0.0010796 0.00015
         vertex -0.00245 0.0029796 0.00015
         vertex -0.00245 0.0029796 0
      endloop
   endfacet
   facet normal 1 0 0
      outer loop
         vertex -0.00205 0.0029796 0.00015
         vertex -0.00205 0.0010796 0.00015
         vertex -0.00205 0.0010796 0
      endloop
   endfacet
   facet normal 1 0 0
      outer loop
         vertex -0.00205 0.0010796 0
         vertex -0.00205 0.0029796 0
         vertex -0.00205 0.0029796 0.00015
      endloop
   endfacet
   facet normal 0 -1 0
      outer loop
         vertex -0.00245 0.0010796 0.00015
         vertex -0.00245 0.0010796 0
         vertex -0.00205 0.0010796 0
      endloop
   endfacet
   facet normal 0 -1 0
      outer loop
         vertex -0.00205 0.0010796 0
         vertex -0.00205 0.0010796 0.00015
         vertex -0.00245 0.0010796 0.00015
      endloop
   endfacet
endsolid FP-PCM12SMTR-MFG_CMPL-001-0011-2. Units = meters