solid Part 1. STL generated by ONSHAPE BY PTC INC, 1.213. Units = meters
   facet normal -1 0 6.48495e-17
      outer loop
         vertex 0.047 -0.0015875 0.0535
         vertex 0.047 0 0.0535
         vertex 0.047 0 -0.0535
      endloop
   endfacet
   facet normal -1 0 6.48495e-17
      outer loop
         vertex 0.047 0 -0.0535
         vertex 0.047 -0.0015875 -0.0535
         vertex 0.047 -0.0015875 0.0535
      endloop
   endfacet
   facet normal 0 0 1
      outer loop
         vertex 0.047 -0.0015875 -0.0535
         vertex 0.047 0 -0.0535
         vertex -0.047 0 -0.0535
      endloop
   endfacet
   facet normal 0 0 1
      outer loop
         vertex -0.047 0 -0.0535
         vertex -0.047 -0.0015875 -0.0535
         vertex 0.047 -0.0015875 -0.0535
      endloop
   endfacet
   facet normal 1 0 -6.48495e-17
      outer loop
         vertex -0.047 -0.0015875 -0.0535
         vertex -0.047 0 -0.0535
         vertex -0.047 0 0.0535
      endloop
   endfacet
   facet normal 1 0 -6.48495e-17
      outer loop
         vertex -0.047 0 0.0535
         vertex -0.047 -0.0015875 0.0535
         vertex -0.047 -0.0015875 -0.0535
      endloop
   endfacet
   facet normal 0 0 -1
      outer loop
         vertex -0.047 -0.0015875 0.0535
         vertex -0.047 0 0.0535
         vertex 0.047 0 0.0535
      endloop
   endfacet
   facet normal 0 0 -1
      outer loop
         vertex 0.047 0 0.0535
         vertex 0.047 -0.0015875 0.0535
         vertex -0.047 -0.0015875 0.0535
      endloop
   endfacet
   facet normal 0 -1 0
      outer loop
         vertex 0.053 -0.0015875 -0.0595
         vertex 0.053 -0.0015875 0.0595
         vertex 0.047 -0.0015875 0.0535
      endloop
   endfacet
   facet normal 0 -1 0
      outer loop
         vertex 0.053 -0.0015875 0.0595
         vertex -0.053 -0.0015875 0.0595
         vertex -0.047 -0.0015875 0.0535
      endloop
   endfacet
   facet normal 0 -1 0
      outer loop
         vertex -0.047 -0.0015875 0.0535
         vertex 0.047 -0.0015875 0.0535
         vertex 0.053 -0.0015875 0.0595
      endloop
   endfacet
   facet normal 0 -1 0
      outer loop
         vertex -0.053 -0.0015875 0.0595
         vertex -0.053 -0.0015875 -0.0595
         vertex -0.047 -0.0015875 -0.0535
      endloop
   endfacet
   facet normal 0 -1 0
      outer loop
         vertex -0.047 -0.0015875 -0.0535
         vertex -0.047 -0.0015875 0.0535
         vertex -0.053 -0.0015875 0.0595
      endloop
   endfacet
   facet normal 0 -1 0
      outer loop
         vertex -0.053 -0.0015875 -0.0595
         vertex 0.053 -0.0015875 -0.0595
         vertex 0.047 -0.0015875 -0.0535
      endloop
   endfacet
   facet normal 0 -1 0
      outer loop
         vertex 0.047 -0.0015875 -0.0535
         vertex -0.047 -0.0015875 -0.0535
         vertex -0.053 -0.0015875 -0.0595
      endloop
   endfacet
   facet normal 0 -1 0
      outer loop
         vertex 0.047 -0.0015875 0.0535
         vertex 0.047 -0.0015875 -0.0535
         vertex 0.053 -0.0015875 -0.0595
      endloop
   endfacet
   facet normal 0 1 0
      outer loop
         vertex 0.053 0 0.0595
         vertex 0.053 0 -0.0595
         vertex 0.047 0 -0.0535
      endloop
   endfacet
   facet normal 0 1 0
      outer loop
         vertex 0.053 0 -0.0595
         vertex -0.053 0 -0.0595
         vertex -0.047 0 -0.0535
      endloop
   endfacet
   facet normal 0 1 0
      outer loop
         vertex -0.047 0 -0.0535
         vertex 0.047 0 -0.0535
         vertex 0.053 0 -0.0595
      endloop
   endfacet
   facet normal 0 1 0
      outer loop
         vertex -0.053 0 -0.0595
         vertex -0.053 0 0.0595
         vertex -0.047 0 0.0535
      endloop
   endfacet
   facet normal 0 1 0
      outer loop
         vertex -0.047 0 0.0535
         vertex -0.047 0 -0.0535
         vertex -0.053 0 -0.0595
      endloop
   endfacet
   facet normal 0 1 0
      outer loop
         vertex -0.053 0 0.0595
         vertex 0.053 0 0.0595
         vertex 0.047 0 0.0535
      endloop
   endfacet
   facet normal 0 1 0
      outer loop
         vertex 0.047 0 0.0535
         vertex -0.047 0 0.0535
         vertex -0.053 0 0.0595
      endloop
   endfacet
   facet normal 0 1 0
      outer loop
         vertex 0.047 0 -0.0535
         vertex 0.047 0 0.0535
         vertex 0.053 0 0.0595
      endloop
   endfacet
   facet normal 1 0 -5.831e-17
      outer loop
         vertex 0.053 -0.0015875 -0.0595
         vertex 0.053 0 -0.0595
         vertex 0.053 0 0.0595
      endloop
   endfacet
   facet normal 1 0 -5.831e-17
      outer loop
         vertex 0.053 0 0.0595
         vertex 0.053 -0.0015875 0.0595
         vertex 0.053 -0.0015875 -0.0595
      endloop
   endfacet
   facet normal 0 0 1
      outer loop
         vertex 0.053 -0.0015875 0.0595
         vertex 0.053 0 0.0595
         vertex -0.053 0 0.0595
      endloop
   endfacet
   facet normal 0 0 1
      outer loop
         vertex -0.053 0 0.0595
         vertex -0.053 -0.0015875 0.0595
         vertex 0.053 -0.0015875 0.0595
      endloop
   endfacet
   facet normal -1 0 5.831e-17
      outer loop
         vertex -0.053 -0.0015875 0.0595
         vertex -0.053 0 0.0595
         vertex -0.053 0 -0.0595
      endloop
   endfacet
   facet normal -1 0 5.831e-17
      outer loop
         vertex -0.053 0 -0.0595
         vertex -0.053 -0.0015875 -0.0595
         vertex -0.053 -0.0015875 0.0595
      endloop
   endfacet
   facet normal 0 0 -1
      outer loop
         vertex -0.053 -0.0015875 -0.0595
         vertex -0.053 0 -0.0595
         vertex 0.053 0 -0.0595
      endloop
   endfacet
   facet normal 0 0 -1
      outer loop
         vertex 0.053 0 -0.0595
         vertex 0.053 -0.0015875 -0.0595
         vertex -0.053 -0.0015875 -0.0595
      endloop
   endfacet
endsolid Part 1. Units = meters